<?xml version="1.0" encoding="UTF-8" standalone="no"?>
<!-- Created with Inkscape (http://www.inkscape.org/) -->

<svg
   xmlns:dc="http://purl.org/dc/elements/1.1/"
   xmlns:cc="http://creativecommons.org/ns#"
   xmlns:rdf="http://www.w3.org/1999/02/22-rdf-syntax-ns#"
   xmlns:svg="http://www.w3.org/2000/svg"
   xmlns="http://www.w3.org/2000/svg"
   xmlns:sodipodi="http://sodipodi.sourceforge.net/DTD/sodipodi-0.dtd"
   xmlns:inkscape="http://www.inkscape.org/namespaces/inkscape"
   width="210mm"
   height="297mm"
   viewBox="0 0 210 297"
   version="1.1"
   id="svg8"
   inkscape:version="0.92.2 2405546, 2018-03-11"
   sodipodi:docname="leikepler2.svg">
  <defs
     id="defs2">
    <marker
       inkscape:isstock="true"
       style="overflow:visible"
       id="marker2284"
       refX="0.0"
       refY="0.0"
       orient="auto"
       inkscape:stockid="Arrow1Lstart">
      <path
         transform="scale(0.8) translate(12.5,0)"
         style="fill-rule:evenodd;stroke:#000000;stroke-width:1pt;stroke-opacity:1;fill:#000000;fill-opacity:1"
         d="M 0.0,0.0 L 5.0,-5.0 L -12.5,0.0 L 5.0,5.0 L 0.0,0.0 z "
         id="path2282" />
    </marker>
    <marker
       inkscape:stockid="Arrow1Lend"
       orient="auto"
       refY="0.0"
       refX="0.0"
       id="marker2220"
       style="overflow:visible;"
       inkscape:isstock="true">
      <path
         id="path2218"
         d="M 0.0,0.0 L 5.0,-5.0 L -12.5,0.0 L 5.0,5.0 L 0.0,0.0 z "
         style="fill-rule:evenodd;stroke:#000000;stroke-width:1pt;stroke-opacity:1;fill:#000000;fill-opacity:1"
         transform="scale(0.8) rotate(180) translate(12.5,0)" />
    </marker>
    <marker
       inkscape:stockid="Arrow1Lend"
       orient="auto"
       refY="0.0"
       refX="0.0"
       id="marker4656"
       style="overflow:visible;"
       inkscape:isstock="true">
      <path
         id="path4654"
         d="M 0.0,0.0 L 5.0,-5.0 L -12.5,0.0 L 5.0,5.0 L 0.0,0.0 z "
         style="fill-rule:evenodd;stroke:none;stroke-width:1pt;stroke-opacity:1;fill:#ffffbe;fill-opacity:1"
         transform="scale(0.8) rotate(180) translate(12.5,0)" />
    </marker>
    <marker
       inkscape:stockid="Arrow1Lend"
       orient="auto"
       refY="0.0"
       refX="0.0"
       id="marker4590"
       style="overflow:visible;"
       inkscape:isstock="true">
      <path
         id="path4588"
         d="M 0.0,0.0 L 5.0,-5.0 L -12.5,0.0 L 5.0,5.0 L 0.0,0.0 z "
         style="fill-rule:evenodd;stroke:none;stroke-width:1pt;stroke-opacity:1;fill:#ffffbe;fill-opacity:1"
         transform="scale(0.8) rotate(180) translate(12.5,0)" />
    </marker>
    <marker
       inkscape:isstock="true"
       style="overflow:visible;"
       id="marker5747"
       refX="0.0"
       refY="0.0"
       orient="auto"
       inkscape:stockid="Arrow1Lend"
       inkscape:collect="always">
      <path
         transform="scale(0.8) rotate(180) translate(12.5,0)"
         style="fill-rule:evenodd;stroke:#000000;stroke-width:1pt;stroke-opacity:1;fill:#000000;fill-opacity:1"
         d="M 0.0,0.0 L 5.0,-5.0 L -12.5,0.0 L 5.0,5.0 L 0.0,0.0 z "
         id="path5745" />
    </marker>
    <marker
       inkscape:stockid="Arrow1Lstart"
       orient="auto"
       refY="0.0"
       refX="0.0"
       id="Arrow1Lstart"
       style="overflow:visible"
       inkscape:isstock="true"
       inkscape:collect="always">
      <path
         id="path884"
         d="M 0.0,0.0 L 5.0,-5.0 L -12.5,0.0 L 5.0,5.0 L 0.0,0.0 z "
         style="fill-rule:evenodd;stroke:#000000;stroke-width:1pt;stroke-opacity:1;fill:#000000;fill-opacity:1"
         transform="scale(0.8) translate(12.5,0)" />
    </marker>
    <marker
       inkscape:isstock="true"
       style="overflow:visible;"
       id="marker1592"
       refX="0.0"
       refY="0.0"
       orient="auto"
       inkscape:stockid="Arrow1Lend">
      <path
         transform="scale(0.8) rotate(180) translate(12.5,0)"
         style="fill-rule:evenodd;stroke:#000000;stroke-width:1pt;stroke-opacity:1;fill:#000000;fill-opacity:1"
         d="M 0.0,0.0 L 5.0,-5.0 L -12.5,0.0 L 5.0,5.0 L 0.0,0.0 z "
         id="path1590" />
    </marker>
    <marker
       inkscape:isstock="true"
       style="overflow:visible"
       id="marker1682-5"
       refX="0"
       refY="0"
       orient="auto"
       inkscape:stockid="Arrow1Lend">
      <path
         inkscape:connector-curvature="0"
         transform="matrix(-0.8,0,0,-0.8,-10,0)"
         style="fill:#000000;fill-opacity:1;fill-rule:evenodd;stroke:#000000;stroke-width:1.00000003pt;stroke-opacity:1"
         d="M 0,0 5,-5 -12.5,0 5,5 Z"
         id="path1680-3" />
    </marker>
  </defs>
  <sodipodi:namedview
     id="base"
     pagecolor="#ffffff"
     bordercolor="#666666"
     borderopacity="1.0"
     inkscape:pageopacity="0.0"
     inkscape:pageshadow="2"
     inkscape:zoom="1.979899"
     inkscape:cx="219.77328"
     inkscape:cy="902.76605"
     inkscape:document-units="mm"
     inkscape:current-layer="g4771"
     showgrid="false"
     inkscape:window-width="1366"
     inkscape:window-height="717"
     inkscape:window-x="0"
     inkscape:window-y="25"
     inkscape:window-maximized="1" />
  <metadata
     id="metadata5">
    <rdf:RDF>
      <cc:Work
         rdf:about="">
        <dc:format>image/svg+xml</dc:format>
        <dc:type
           rdf:resource="http://purl.org/dc/dcmitype/StillImage" />
        <dc:title />
      </cc:Work>
    </rdf:RDF>
  </metadata>
  <g
     inkscape:label="Layer 1"
     inkscape:groupmode="layer"
     id="layer1">
    <g
       id="g4771">
      <ellipse
         ry="23.185631"
         rx="46.371262"
         cy="65.344139"
         cx="87.530769"
         id="path815"
         style="fill:none;fill-opacity:1;stroke:#000000;stroke-width:0.30000001;stroke-miterlimit:4;stroke-dasharray:0.3, 0.3;stroke-dashoffset:0;stroke-opacity:1" />
      <circle
         r="1.6704345"
         cy="65.082237"
         cx="49.77895"
         id="path817"
         style="fill:#000000;fill-opacity:1;stroke:#000000;stroke-width:0.60000002;stroke-miterlimit:4;stroke-dasharray:none;stroke-opacity:1" />
      <circle
         r="0.82076865"
         cy="47.303444"
         cx="116.72997"
         id="path817-6-7"
         style="fill:#000000;fill-opacity:1;stroke:#000000;stroke-width:0.29481024;stroke-miterlimit:4;stroke-dasharray:none;stroke-opacity:1" />
      <circle
         cy="43.617744"
         cx="103.88187"
         id="path817-6-7-3"
         style="fill:#000000;fill-opacity:1;stroke:#000000;stroke-width:0.29481024;stroke-miterlimit:4;stroke-dasharray:none;stroke-opacity:1"
         r="0.82076865" />
      <circle
         r="0.82076865"
         cy="52.181114"
         cx="49.444862"
         id="path817-6-7-3-6"
         style="fill:#000000;fill-opacity:1;stroke:#000000;stroke-width:0.29481024;stroke-miterlimit:4;stroke-dasharray:none;stroke-opacity:1" />
      <circle
         r="0.82076865"
         cy="80.992508"
         cx="53.774231"
         id="path817-6-7-3-7"
         style="fill:#000000;fill-opacity:1;stroke:#000000;stroke-width:0.29481024;stroke-miterlimit:4;stroke-dasharray:none;stroke-opacity:1" />
      <path
         inkscape:connector-curvature="0"
         id="path5627"
         d="m 49.311226,52.047478 0.400905,12.962572 4.009044,16.169808"
         style="fill:none;stroke:#000000;stroke-width:0.26499999;stroke-linecap:butt;stroke-linejoin:miter;stroke-miterlimit:4;stroke-dasharray:none;stroke-opacity:1;marker-start:url(#Arrow1Lstart);marker-end:url(#marker5747)"
         sodipodi:nodetypes="ccc" />
      <text
         id="text4732"
         y="72.627235"
         x="29.800552"
         style="font-style:normal;font-weight:normal;font-size:10.58333302px;line-height:1.25;font-family:sans-serif;letter-spacing:0px;word-spacing:0px;fill:#000000;fill-opacity:1;stroke:none;stroke-width:0.26458332"
         xml:space="preserve"><tspan
           style="font-size:8.46666622px;stroke-width:0.26458332"
           y="72.627235"
           x="29.800552"
           id="tspan4730"
           sodipodi:role="line">Δt</tspan></text>
      <text
         id="text4732-3"
         y="41.903755"
         x="110.44038"
         style="font-style:normal;font-weight:normal;font-size:10.58333302px;line-height:1.25;font-family:sans-serif;letter-spacing:0px;word-spacing:0px;fill:#000000;fill-opacity:1;stroke:none;stroke-width:0.26458332"
         xml:space="preserve"><tspan
           style="font-size:8.46666622px;stroke-width:0.26458332"
           y="41.903755"
           x="110.44038"
           id="tspan4730-6"
           sodipodi:role="line">Δt</tspan></text>
      <path
         style="stroke-width:0.50587165;stroke-miterlimit:4;stroke-dasharray:none;fill:#ffffbe;fill-opacity:1;marker-start:"
         d="m 209.95091,238.28918 c 0.10199,-0.30599 40.40708,-16.45162 89.56685,-35.87916 86.88205,-34.33509 89.4189,-35.30111 90.72203,-34.54646 1.80152,1.04326 3.76001,0.97903 4.89974,-0.16069 1.15011,-1.15011 3.60863,-1.85455 3.60863,-1.03397 0,0.32494 0.43791,0.45909 1.01016,0.30944 0.55558,-0.14529 1.01015,-0.0316 1.01015,0.25254 0,0.28418 0.45457,0.39783 1.01015,0.25254 0.55558,-0.14529 1.01015,-0.0335 1.01015,0.24838 0,0.29451 0.53715,0.37773 1.26269,0.19563 0.79169,-0.1987 1.26269,-0.10295 1.26269,0.2567 0,0.32494 0.43792,0.45909 1.01016,0.30944 0.55558,-0.14529 1.01015,-0.0317 1.01015,0.25254 0,0.28418 0.45457,0.39783 1.01015,0.25254 0.55559,-0.14529 1.01015,-0.0335 1.01015,0.24838 0,0.29451 0.53715,0.37773 1.2627,0.19563 0.79168,-0.1987 1.26269,-0.10295 1.26269,0.25669 0,0.32025 0.43548,0.45973 0.98593,0.31578 0.54227,-0.1418 1.05778,-0.0423 1.14559,0.22114 0.0878,0.26343 0.49646,0.5298 0.9081,0.59193 0.41165,0.0621 1.01204,0.27777 1.33422,0.47921 0.32216,0.20143 0.9472,0.22755 1.38896,0.058 0.46452,-0.17826 0.80319,-0.0476 0.80319,0.3098 0,0.36936 0.40644,0.51174 1.01015,0.35387 0.55558,-0.14529 1.01015,-0.0317 1.01015,0.25253 0,0.28419 0.44367,0.40068 0.98594,0.25887 0.54226,-0.1418 1.05778,-0.0423 1.14559,0.22114 0.0878,0.26343 0.49646,0.5459 0.9081,0.62771 0.41164,0.0818 1.13531,0.31686 1.60814,0.52233 0.47284,0.20547 1.09787,0.22638 1.38896,0.0465 0.2911,-0.1799 0.52926,-0.0599 0.52926,0.2667 0,0.33852 0.42024,0.48389 0.97754,0.33816 0.58703,-0.15352 1.09315,0.0456 1.26695,0.49857 0.16046,0.41815 0.62508,0.62539 1.04277,0.46511 0.41434,-0.159 0.75335,-0.0443 0.75335,0.25489 0,0.33274 0.50676,0.41679 1.30502,0.21644 0.84622,-0.21239 1.19086,-0.14285 0.98034,0.19779 -0.31452,0.5089 0.33007,0.73169 1.62899,0.56302 0.34724,-0.0451 0.63134,0.15526 0.63134,0.44523 0,0.28997 0.34093,0.52722 0.75762,0.52722 1.70874,0 0.58269,1.03163 -1.89404,1.73521 -6.71928,1.90879 -223.6787,59.37902 -224.16543,59.37902 -0.30328,0 -0.46797,-0.25036 -0.36597,-0.55634 z"
         id="path2186"
         inkscape:connector-curvature="0"
         transform="scale(0.26458333)" />
      <text
         id="text5833"
         y="52.047482"
         x="96.61792"
         style="font-style:normal;font-weight:normal;font-size:8.46666622px;line-height:1.25;font-family:sans-serif;letter-spacing:0px;word-spacing:0px;fill:#000000;fill-opacity:1;stroke:none;stroke-width:0.26458332"
         xml:space="preserve"><tspan
           style="stroke-width:0.26458332"
           y="52.047482"
           x="96.61792"
           id="tspan5831"
           sodipodi:role="line">A</tspan></text>
      <path
         style="fill:none;stroke:#000000;stroke-width:0.26458332px;stroke-linecap:butt;stroke-linejoin:miter;stroke-opacity:1;marker-start:url(#marker2284);marker-end:url(#marker2220)"
         d="M 103.83421,43.628489 49.712131,65.01005 116.66315,47.236628"
         id="path2178"
         inkscape:connector-curvature="0" />
      <path
         style="fill:#ffffbe;fill-opacity:1;stroke-width:0.50587165;stroke-miterlimit:4;stroke-dasharray:none"
         d="m 198.79133,303.66288 c -0.18339,-0.29673 -0.63256,-0.42472 -0.99816,-0.28443 -0.3656,0.14029 -0.79909,-0.0951 -0.96332,-0.52305 -0.16775,-0.43715 -0.62872,-0.65145 -1.05195,-0.48904 -0.45701,0.17538 -0.75336,-0.003 -0.75336,-0.45267 0,-0.41213 -0.46215,-0.74176 -1.03996,-0.74176 -0.57198,0 -0.89949,-0.22728 -0.72781,-0.50508 0.30433,-0.49241 -0.35939,-0.71007 -1.64949,-0.54094 -0.35163,0.0461 -0.57892,-0.21107 -0.50507,-0.5715 0.0817,-0.39864 -0.28782,-0.61228 -0.94331,-0.54543 -0.69443,0.0708 -1.0536,-0.16032 -1.01016,-0.65004 0.0371,-0.41795 -0.61443,-1.14925 -1.44781,-1.62512 -0.83337,-0.47585 -1.70256,-1.15926 -1.93152,-1.51867 -0.22896,-0.35942 -0.83002,-0.52218 -1.33569,-0.36168 -0.66754,0.21187 -0.89941,0.0449 -0.8464,-0.60921 0.0482,-0.59441 -0.22502,-0.85114 -0.80281,-0.75445 -0.60869,0.10185 -0.78477,-0.0907 -0.57731,-0.63135 0.26822,-0.69897 -0.28973,-1.02108 -1.45106,-0.83771 -0.20835,0.0329 -0.37881,-0.30763 -0.37881,-0.75671 0,-0.57106 -0.30729,-0.73617 -1.02216,-0.54923 -0.75264,0.19682 -0.98569,0.0459 -0.88388,-0.57243 0.0899,-0.54584 -0.18324,-0.81317 -0.78034,-0.7638 -0.62187,0.0514 -0.82514,-0.16764 -0.62926,-0.67809 0.18115,-0.47206 -0.0717,-0.84844 -0.67619,-1.00652 -0.53105,-0.13887 -1.07916,-0.68699 -1.21804,-1.21803 -0.15807,-0.60448 -0.53445,-0.85734 -1.00651,-0.6762 -0.51046,0.19588 -0.7295,-0.007 -0.67809,-0.62926 0.0506,-0.61198 -0.2164,-0.86968 -0.79988,-0.77205 -0.60683,0.10155 -0.78464,-0.091 -0.57894,-0.62708 0.1737,-0.45266 -0.0392,-0.90262 -0.51314,-1.08448 -0.44551,-0.17096 -0.81002,-0.65396 -0.81002,-1.07332 0,-0.50998 -0.32954,-0.67631 -0.99512,-0.50225 -0.78201,0.20449 -0.9713,0.0278 -0.88389,-0.82498 0.071,-0.69216 -0.13986,-1.03199 -0.58207,-0.93829 -0.45579,0.0966 -0.58485,-0.1357 -0.37672,-0.67808 0.21467,-0.55941 -0.007,-0.90975 -0.68997,-1.08823 -0.55361,-0.14477 -0.86075,-0.49915 -0.68254,-0.78749 0.17822,-0.28836 -0.009,-0.77391 -0.41578,-1.079 -0.4069,-0.3051 -0.89459,-0.96688 -1.08375,-1.47062 -0.2019,-0.53764 -0.58946,-0.76416 -0.93842,-0.5485 -0.40401,0.2497 -0.48879,0.092 -0.26462,-0.49218 0.20729,-0.54018 0.0407,-0.97054 -0.44827,-1.15818 -0.4291,-0.16466 -0.6509,-0.63015 -0.49448,-1.03777 0.17397,-0.45336 -0.0851,-0.83561 -0.66991,-0.98854 -0.64644,-0.16905 -0.87215,-0.56068 -0.70079,-1.21595 0.16726,-0.63961 -0.007,-0.96659 -0.51647,-0.96659 -0.52057,0 -0.68384,-0.32655 -0.50507,-1.01016 0.14529,-0.55558 0.0175,-1.01015 -0.28397,-1.01015 -0.30148,0 -0.41804,-0.33901 -0.25905,-0.75336 0.16028,-0.41768 -0.047,-0.88231 -0.46511,-1.04277 -0.45292,-0.1738 -0.65208,-0.67991 -0.49857,-1.26694 0.14993,-0.57335 9e-5,-0.97754 -0.36239,-0.97754 -0.34048,0 -0.48811,-0.33855 -0.32874,-0.75386 0.1591,-0.41462 -0.009,-1.03294 -0.37463,-1.37404 -0.36516,-0.3411 -0.55815,-1.02465 -0.42888,-1.51899 0.12927,-0.49434 0.0381,-0.89897 -0.20267,-0.89918 -0.24075,-2.2e-4 -0.49259,-0.96618 -0.55965,-2.14658 -0.18784,-3.30618 -0.49565,-6.67809 -0.62241,-6.81814 -0.0629,-0.0694 -0.11429,-0.69448 -0.11429,-1.38896 0,-0.69448 0.0514,-1.31951 0.11429,-1.38896 0.12676,-0.14005 0.43457,-3.51196 0.62241,-6.81814 0.0671,-1.1804 0.3189,-2.14636 0.55965,-2.14657 0.24074,-2.2e-4 0.33194,-0.40485 0.20267,-0.89919 -0.12927,-0.49434 0.0637,-1.17788 0.42888,-1.51899 0.36515,-0.3411 0.53373,-0.95942 0.37463,-1.37404 -0.15937,-0.41531 -0.0117,-0.75386 0.32874,-0.75386 0.36248,0 0.51232,-0.40419 0.36239,-0.97753 -0.15351,-0.58704 0.0456,-1.09315 0.49857,-1.26695 0.41481,-0.15918 0.63133,-0.60962 0.48115,-1.00097 -0.15017,-0.39136 0.0771,-0.84593 0.50508,-1.01016 0.42797,-0.16422 0.65525,-0.61879 0.50508,-1.01015 -0.15018,-0.39135 0.0771,-0.84592 0.50507,-1.01015 0.42797,-0.16423 0.65526,-0.6188 0.50508,-1.01015 -0.15018,-0.39136 0.0771,-0.84593 0.50508,-1.01016 0.43715,-0.16775 0.65144,-0.62871 0.48903,-1.05195 -0.16359,-0.42632 -0.008,-0.75335 0.3584,-0.75335 0.35612,0 0.95591,-0.78604 1.33286,-1.74674 0.37695,-0.96071 1.01117,-1.87176 1.40937,-2.02457 0.3982,-0.1528 0.6025,-0.59443 0.454,-0.98141 -0.16223,-0.42276 0.13953,-0.81068 0.75603,-0.9719 0.56432,-0.14757 0.8761,-0.51089 0.69286,-0.80738 -0.18324,-0.29649 0.0212,-0.53907 0.45426,-0.53907 0.70928,0 1.01338,-0.5892 0.84723,-1.6415 -0.0329,-0.20834 0.30763,-0.37881 0.75671,-0.37881 0.57334,0 0.73623,-0.30703 0.54694,-1.0309 -0.22376,-0.85567 -0.0924,-0.97467 0.77265,-0.70011 0.87652,0.2782 0.99735,0.15912 0.7599,-0.74887 -0.21222,-0.81152 -0.0738,-1.04532 0.5574,-0.94139 0.54583,0.0899 0.81316,-0.18323 0.7638,-0.78033 -0.0474,-0.57337 0.17601,-0.82193 0.59442,-0.66137 0.75177,0.28849 1.92985,-0.8541 1.41326,-1.37068 -0.18278,-0.18279 0.18443,-0.33234 0.81604,-0.33234 0.84853,0 1.06682,-0.21249 0.83606,-0.81385 -0.22593,-0.58878 -0.0958,-0.73078 0.47043,-0.51349 0.51361,0.19709 0.9262,-0.0875 1.20001,-0.82765 0.2295,-0.6204 0.50488,-1.02871 0.61195,-0.90736 0.40403,0.45792 3.01264,-1.66063 2.78268,-2.25991 -0.15468,-0.40308 0.19705,-0.60196 0.98443,-0.55664 0.67379,0.0388 1.22027,0.29781 1.21438,0.5756 -0.006,0.27779 -0.66293,3.06203 -1.4601,6.18718 -0.79717,3.12516 -1.28928,5.68211 -1.09359,5.68211 0.1957,0 1.00907,-0.68185 1.80749,-1.51523 0.79843,-0.83337 1.61524,-1.51523 1.81513,-1.51523 0.44085,0 0.83556,6.13299 1.2201,18.95785 l 0.28827,9.61393 -1.78696,0.64617 c -0.98282,0.3554 -2.3365,1.37031 -3.00817,2.25536 -3.52182,4.64068 -1.23313,10.7352 4.58631,12.21282 l 2.40369,0.61032 4.66409,18.63668 c 2.56526,10.25018 4.81593,19.52598 5.00151,20.61287 l 0.33741,1.97618 -2.37077,-1.38936 c -1.30392,-0.76415 -2.45392,-1.30622 -2.55554,-1.20459 -0.10163,0.10162 1.15765,2.45133 2.79839,5.22156 1.64075,2.77023 2.9918,5.32089 3.00235,5.66813 0.0234,0.77192 -0.80721,0.83223 -1.2648,0.0918 z"
         id="path1378"
         inkscape:connector-curvature="0"
         transform="scale(0.26458333)" />
      <text
         id="text5829"
         y="67.014565"
         x="42.094948"
         style="font-style:normal;font-weight:normal;font-size:8.46666622px;line-height:1.25;font-family:sans-serif;letter-spacing:0px;word-spacing:0px;fill:#000000;fill-opacity:1;stroke:none;stroke-width:0.26458332"
         xml:space="preserve"><tspan
           style="stroke-width:0.26458332"
           y="67.014565"
           x="42.094948"
           id="tspan5827"
           sodipodi:role="line">A</tspan></text>
    </g>
  </g>
</svg>
