<?xml version="1.0" encoding="UTF-8" standalone="no"?>
<!-- Created with Inkscape (http://www.inkscape.org/) -->

<svg
   xmlns:dc="http://purl.org/dc/elements/1.1/"
   xmlns:cc="http://creativecommons.org/ns#"
   xmlns:rdf="http://www.w3.org/1999/02/22-rdf-syntax-ns#"
   xmlns:svg="http://www.w3.org/2000/svg"
   xmlns="http://www.w3.org/2000/svg"
   xmlns:sodipodi="http://sodipodi.sourceforge.net/DTD/sodipodi-0.dtd"
   xmlns:inkscape="http://www.inkscape.org/namespaces/inkscape"
   width="210mm"
   height="297mm"
   viewBox="0 0 744.09448819 1052.3622047"
   id="svg2"
   version="1.1"
   inkscape:version="0.91 r13725"
   sodipodi:docname="lista4-questao3.svg">
  <defs
     id="defs4" />
  <sodipodi:namedview
     id="base"
     pagecolor="#ffffff"
     bordercolor="#666666"
     borderopacity="1.0"
     inkscape:pageopacity="0.0"
     inkscape:pageshadow="2"
     inkscape:zoom="0.98994949"
     inkscape:cx="113.58706"
     inkscape:cy="824.77401"
     inkscape:document-units="px"
     inkscape:current-layer="layer1"
     showgrid="false"
     showguides="false"
     inkscape:window-width="1301"
     inkscape:window-height="744"
     inkscape:window-x="65"
     inkscape:window-y="24"
     inkscape:window-maximized="1" />
  <metadata
     id="metadata7">
    <rdf:RDF>
      <cc:Work
         rdf:about="">
        <dc:format>image/svg+xml</dc:format>
        <dc:type
           rdf:resource="http://purl.org/dc/dcmitype/StillImage" />
        <dc:title></dc:title>
      </cc:Work>
    </rdf:RDF>
  </metadata>
  <g
     inkscape:label="Layer 1"
     inkscape:groupmode="layer"
     id="layer1">
    <g
       id="g4193">
      <path
         inkscape:connector-curvature="0"
         id="path3336"
         d="m 181.82746,212.92544 377.79705,0"
         style="fill:none;fill-rule:evenodd;stroke:#000000;stroke-width:1;stroke-linecap:butt;stroke-linejoin:miter;stroke-opacity:1;stroke-miterlimit:4;stroke-dasharray:none;stroke-dashoffset:0" />
      <circle
         r="22.223356"
         cy="176.55994"
         cx="174.75638"
         id="path4164"
         style="fill:none;stroke:#000000;stroke-width:1;stroke-miterlimit:4;stroke-dasharray:none;stroke-dashoffset:0;stroke-opacity:1" />
      <path
         inkscape:connector-curvature="0"
         id="path4166"
         d="m 181.82746,212.92544 -8.08122,-36.36549 32.32488,36.36549"
         style="fill:none;fill-rule:evenodd;stroke:#000000;stroke-width:1px;stroke-linecap:butt;stroke-linejoin:miter;stroke-opacity:1" />
      <path
         inkscape:connector-curvature="0"
         id="path4168"
         d="m 152.51273,175.5498 0,112.12693"
         style="fill:none;fill-rule:evenodd;stroke:#000000;stroke-width:1px;stroke-linecap:butt;stroke-linejoin:miter;stroke-opacity:1" />
      <path
         inkscape:connector-curvature="0"
         id="path4170"
         d="m 173.74624,153.81121 211.12188,0"
         style="fill:none;fill-rule:evenodd;stroke:#000000;stroke-width:1px;stroke-linecap:butt;stroke-linejoin:miter;stroke-opacity:1" />
      <rect
         y="287.67673"
         x="125.25892"
         height="49.497475"
         width="53.538086"
         id="rect4172"
         style="fill:none;stroke:#000000;stroke-width:1;stroke-miterlimit:4;stroke-dasharray:none;stroke-dashoffset:0;stroke-opacity:1" />
      <rect
         y="125.04217"
         x="383.85797"
         height="85.862968"
         width="94.954338"
         id="rect4174"
         style="fill:none;stroke:#000000;stroke-width:1;stroke-miterlimit:4;stroke-dasharray:none;stroke-dashoffset:0;stroke-opacity:1" />
      <path
         inkscape:connector-curvature="0"
         id="path4176"
         d="m 181.82746,212.92544 c 0.67343,1.68359 0.80728,3.70296 2.0203,5.05076 2.26854,2.5206 12.71642,8.31522 15.15229,10.10153 2.50339,1.83582 4.78996,3.95527 7.07107,6.06091 4.53664,4.18767 13.0107,13.42991 16.16244,17.1726 2.16892,2.57559 3.95746,5.45189 6.06092,8.08122 2.61479,3.26849 8.74876,10.3722 12.12183,13.13198 1.51957,1.24329 3.39433,1.97636 5.05076,3.03046 2.0485,1.30359 4.16488,2.52378 6.06091,4.04061 1.48737,1.18989 2.61698,2.77515 4.04061,4.04061 1.61145,1.4324 3.52621,2.51605 5.05077,4.04061 1.52455,1.52455 2.41802,3.631 4.04061,5.05076 1.13326,0.99161 2.97581,0.95551 4.04061,2.02031 0.75292,0.75292 0.53396,2.07807 1.01015,3.03045 2.47201,4.94402 1.22191,1.29251 4.04061,5.05077 0.45175,0.60233 0.5584,1.41796 1.01015,2.0203 0.57143,0.76191 1.34687,1.34687 2.02031,2.02031 0.33671,0.33671 0.6292,0.72443 1.01015,1.01015 0.97124,0.72843 2.17199,1.16184 3.03046,2.0203 0.53239,0.5324 0.5584,1.41797 1.01015,2.02031 3.32787,4.43716 1.09902,-0.74354 3.03046,5.05076 0.33672,1.01015 0.53396,2.07808 1.01015,3.03046 0.54315,1.0863 2.65247,3.53881 3.03046,5.05076 0.16333,0.65333 -0.21296,1.38143 0,2.02031 0.15058,0.45175 0.79719,0.58423 1.01015,1.01015 0.15059,0.30117 -0.10648,0.69071 0,1.01015 0.2381,0.71429 0.77206,1.30602 1.01015,2.02031 0.21296,0.63887 -0.30117,1.41796 0,2.0203 2.00471,4.00941 0.31928,-4.46454 2.02031,4.04061 0.13207,0.66036 -0.11071,1.35604 0,2.02031 0.22824,1.36943 0.62875,2.7057 1.01015,4.04061 0.29252,1.02382 0.8351,1.98015 1.01015,3.03046 0.33214,1.99281 -0.33213,4.06809 0,6.06091 0.17505,1.05031 0.80133,1.98634 1.01016,3.03046 0.13207,0.66036 0,1.34687 0,2.0203 0,2.69374 0,5.38748 0,8.08122 0,1.34687 0,2.69374 0,4.04061 0,0.33672 0,0.67344 0,1.01016 0,0.33671 0.33671,1.01015 0,1.01015 -0.33672,0 0,-0.67344 0,-1.01015"
         style="fill:none;fill-rule:evenodd;stroke:#000000;stroke-width:1px;stroke-linecap:butt;stroke-linejoin:miter;stroke-opacity:1" />
      <text
         sodipodi:linespacing="125%"
         id="text4185"
         y="322.02191"
         x="148.49242"
         style="font-style:normal;font-weight:normal;font-size:20px;line-height:125%;font-family:sans-serif;letter-spacing:0px;word-spacing:0px;fill:#000000;fill-opacity:1;stroke:none;stroke-width:1px;stroke-linecap:butt;stroke-linejoin:miter;stroke-opacity:1"
         xml:space="preserve"><tspan
           y="322.02191"
           x="148.49242"
           id="tspan4187"
           sodipodi:role="line">A</tspan></text>
      <text
         sodipodi:linespacing="125%"
         id="text4189"
         y="177.5701"
         x="420.22345"
         style="font-style:normal;font-weight:normal;font-size:20px;line-height:125%;font-family:sans-serif;letter-spacing:0px;word-spacing:0px;fill:#000000;fill-opacity:1;stroke:none;stroke-width:1px;stroke-linecap:butt;stroke-linejoin:miter;stroke-opacity:1"
         xml:space="preserve"><tspan
           y="177.5701"
           x="420.22345"
           id="tspan4191"
           sodipodi:role="line">B</tspan></text>
    </g>
  </g>
</svg>
