<?xml version="1.0" encoding="UTF-8" standalone="no"?>
<!-- Created with Inkscape (http://www.inkscape.org/) -->

<svg
   xmlns:dc="http://purl.org/dc/elements/1.1/"
   xmlns:cc="http://creativecommons.org/ns#"
   xmlns:rdf="http://www.w3.org/1999/02/22-rdf-syntax-ns#"
   xmlns:svg="http://www.w3.org/2000/svg"
   xmlns="http://www.w3.org/2000/svg"
   xmlns:sodipodi="http://sodipodi.sourceforge.net/DTD/sodipodi-0.dtd"
   xmlns:inkscape="http://www.inkscape.org/namespaces/inkscape"
   version="1.1"
   id="svg2"
   xml:space="preserve"
   width="653.28693"
   height="428.92041"
   viewBox="0 0 653.28693 428.92041"
   sodipodi:docname="massamola.svg"
   inkscape:version="0.92.2 2405546, 2018-03-11"><metadata
     id="metadata8"><rdf:RDF><cc:Work
         rdf:about=""><dc:format>image/svg+xml</dc:format><dc:type
           rdf:resource="http://purl.org/dc/dcmitype/StillImage" /><dc:title></dc:title></cc:Work></rdf:RDF></metadata><defs
     id="defs6" /><sodipodi:namedview
     pagecolor="#ffffff"
     bordercolor="#666666"
     borderopacity="1"
     objecttolerance="10"
     gridtolerance="10"
     guidetolerance="10"
     inkscape:pageopacity="0"
     inkscape:pageshadow="2"
     inkscape:window-width="768"
     inkscape:window-height="480"
     id="namedview4"
     showgrid="false"
     inkscape:zoom="0.48064639"
     inkscape:cx="326.64346"
     inkscape:cy="214.46021"
     inkscape:window-x="0"
     inkscape:window-y="27"
     inkscape:window-maximized="0"
     inkscape:current-layer="g10" /><g
     id="g10"
     inkscape:groupmode="layer"
     inkscape:label="massamola"
     transform="matrix(1.3333333,0,0,1.3333333,0,1.0056344e-5)"><g
       id="g12"><g
         id="g14"><path
           d="m 0.605,59.555 v 96.218 h 487.903"
           style="fill:none;stroke:#000000;stroke-width:0.75118101;stroke-linecap:butt;stroke-linejoin:miter;stroke-miterlimit:4;stroke-dasharray:none;stroke-opacity:1"
           id="path16"
           inkscape:connector-curvature="0" /></g><g
         id="g18"
         transform="scale(-1)"><path
           d="m -480.996,-155.773 3.004,-3.004 -10.516,3.004 10.516,3.003 z"
           style="fill:#000000;fill-opacity:1;fill-rule:evenodd;stroke:#000000;stroke-width:0.80125999;stroke-linecap:butt;stroke-linejoin:miter;stroke-miterlimit:4;stroke-dasharray:none;stroke-opacity:1"
           id="path20"
           inkscape:connector-curvature="0" /></g><g
         id="g22"
         transform="scale(1,0.472355)"><path
           d="m 0,243.701 h 28.898 c 40.622,-89.479 65.672,-20.699 65.672,0 -0.093,71.235 -23.64,24.032 -23.64,0 0,0 0.922,-44.665 24.297,-44.665"
           style="fill:none;stroke:#000000;stroke-width:1.09297597;stroke-linecap:butt;stroke-linejoin:miter;stroke-miterlimit:4;stroke-dasharray:none;stroke-opacity:1"
           id="path24"
           inkscape:connector-curvature="0" /></g><g
         id="g26"
         transform="scale(1,0.472355)"><path
           d="m 93.586,198.631 c 35.348,0 39.805,50.272 38.746,44.665 -0.094,71.235 -23.641,24.032 -23.641,0 0,0 0.926,-44.665 24.297,-44.665"
           style="fill:none;stroke:#000000;stroke-width:1.09297597;stroke-linecap:butt;stroke-linejoin:miter;stroke-miterlimit:4;stroke-dasharray:none;stroke-opacity:1"
           id="path28"
           inkscape:connector-curvature="0" /></g><g
         id="g30"
         transform="scale(1,0.472355)"><path
           d="m 132.266,198.97 c 35.347,0 39.804,50.263 38.75,44.657 -0.094,71.243 -23.645,24.04 -23.645,0 0,0 0.926,-44.657 24.301,-44.657"
           style="fill:none;stroke:#000000;stroke-width:1.09297597;stroke-linecap:butt;stroke-linejoin:miter;stroke-miterlimit:4;stroke-dasharray:none;stroke-opacity:1"
           id="path32"
           inkscape:connector-curvature="0" /></g><g
         id="g34"
         transform="scale(1,0.472355)"><path
           d="m 169.309,198.705 c 35.343,0 39.8,50.272 38.746,44.657 -0.094,71.244 -23.641,24.04 -23.641,0 0,0 0.922,-44.657 24.297,-44.657"
           style="fill:none;stroke:#000000;stroke-width:1.09297597;stroke-linecap:butt;stroke-linejoin:miter;stroke-miterlimit:4;stroke-dasharray:none;stroke-opacity:1"
           id="path36"
           inkscape:connector-curvature="0" /></g><g
         id="g38"
         transform="scale(1,0.472355)"><path
           d="M 304.398,243.296 H 275.5 c -40.621,-89.479 -65.672,-20.699 -65.672,0 0.094,71.235 23.641,24.032 23.641,0 0,0 -0.926,-44.665 -24.297,-44.665"
           style="fill:none;stroke:#000000;stroke-width:1.09297597;stroke-linecap:butt;stroke-linejoin:miter;stroke-miterlimit:4;stroke-dasharray:none;stroke-opacity:1"
           id="path40"
           inkscape:connector-curvature="0" /></g><g
         id="g42"><path
           d="m 304.398,94.77 h 75.77 v 59.152 h -75.77 z"
           style="fill:none;stroke:#000000;stroke-width:0.75118101;stroke-linecap:butt;stroke-linejoin:miter;stroke-miterlimit:4;stroke-dasharray:none;stroke-opacity:1"
           id="path44"
           inkscape:connector-curvature="0" /></g><text
         transform="translate(330.0556,130.77146)"
         style="font-variant:normal;font-weight:normal;font-size:23.99999809px;font-family:'DejaVu Sans';-inkscape-font-specification:DejaVuSans;writing-mode:lr-tb;fill:#000000;fill-opacity:1;fill-rule:nonzero;stroke:none"
         id="text50"><tspan
           x="0"
           y="0"
           id="tspan46">m</tspan><tspan
           x="-264.40744"
           y="-58.336292"
           id="tspan48">k</tspan></text>
<g
         id="g52"><path
           d="m 0.605,193.055 v 96.218 h 487.903"
           style="fill:none;stroke:#000000;stroke-width:0.75118101;stroke-linecap:butt;stroke-linejoin:miter;stroke-miterlimit:4;stroke-dasharray:none;stroke-opacity:1"
           id="path54"
           inkscape:connector-curvature="0" /></g><g
         id="g56"
         transform="scale(-1)"><path
           d="m -480.996,-289.273 3.004,-3.004 -10.516,3.004 10.516,3.003 z"
           style="fill:#000000;fill-opacity:1;fill-rule:evenodd;stroke:#000000;stroke-width:0.80125999;stroke-linecap:butt;stroke-linejoin:miter;stroke-miterlimit:4;stroke-dasharray:none;stroke-opacity:1"
           id="path58"
           inkscape:connector-curvature="0" /></g><g
         id="g60"
         transform="scale(0.478357,1)"><path
           d="m 0,248.613 h 13.645 c 19.19,-42.265 31.023,-9.773 31.023,0 -0.041,33.649 -11.163,11.352 -11.163,0 0,0 0.433,-21.093 11.473,-21.093"
           style="fill:none;stroke:#000000;stroke-width:1.086097;stroke-linecap:butt;stroke-linejoin:miter;stroke-miterlimit:4;stroke-dasharray:none;stroke-opacity:1"
           id="path62"
           inkscape:connector-curvature="0" /></g><g
         id="g64"
         transform="scale(0.478357,1)"><path
           d="m 44.202,227.324 c 16.7,0 18.807,23.746 18.308,21.098 -0.049,33.648 -11.171,11.351 -11.171,0 0,0 0.441,-21.098 11.482,-21.098"
           style="fill:none;stroke:#000000;stroke-width:1.086097;stroke-linecap:butt;stroke-linejoin:miter;stroke-miterlimit:4;stroke-dasharray:none;stroke-opacity:1"
           id="path66"
           inkscape:connector-curvature="0" /></g><g
         id="g68"
         transform="scale(0.478357,1)"><path
           d="m 62.478,227.484 c 16.699,0 18.798,23.743 18.3,21.094 -0.041,33.652 -11.163,11.356 -11.163,0 0,0 0.433,-21.094 11.473,-21.094"
           style="fill:none;stroke:#000000;stroke-width:1.086097;stroke-linecap:butt;stroke-linejoin:miter;stroke-miterlimit:4;stroke-dasharray:none;stroke-opacity:1"
           id="path70"
           inkscape:connector-curvature="0" /></g><g
         id="g72"
         transform="scale(0.478357,1)"><path
           d="m 79.969,227.359 c 16.7,0 18.807,23.746 18.308,21.094 -0.049,33.652 -11.171,11.356 -11.171,0 0,0 0.441,-21.094 11.482,-21.094"
           style="fill:none;stroke:#000000;stroke-width:1.086097;stroke-linecap:butt;stroke-linejoin:miter;stroke-miterlimit:4;stroke-dasharray:none;stroke-opacity:1"
           id="path74"
           inkscape:connector-curvature="0" /></g><g
         id="g76"
         transform="scale(0.478357,1)"><path
           d="m 143.786,248.422 h -13.653 c -19.19,-42.266 -31.023,-9.774 -31.023,0 0.049,33.648 11.171,11.351 11.171,0 0,0 -0.441,-21.098 -11.481,-21.098"
           style="fill:none;stroke:#000000;stroke-width:1.086097;stroke-linecap:butt;stroke-linejoin:miter;stroke-miterlimit:4;stroke-dasharray:none;stroke-opacity:1"
           id="path78"
           inkscape:connector-curvature="0" /></g><g
         id="g80"><path
           d="m 68.898,228.27 h 75.77 v 59.152 h -75.77 z"
           style="fill:none;stroke:#000000;stroke-width:0.75118101;stroke-linecap:butt;stroke-linejoin:miter;stroke-miterlimit:4;stroke-dasharray:none;stroke-opacity:1"
           id="path82"
           inkscape:connector-curvature="0" /></g><text
         transform="translate(96.055458,264.27122)"
         style="font-variant:normal;font-weight:normal;font-size:23.99999809px;font-family:'DejaVu Sans';-inkscape-font-specification:DejaVuSans;writing-mode:lr-tb;fill:#000000;fill-opacity:1;fill-rule:nonzero;stroke:none"
         id="text88"><tspan
           x="0"
           y="0"
           id="tspan84">m</tspan><tspan
           x="-77.379433"
           y="-50.002293"
           id="tspan86">k</tspan></text>
<g
         id="g90"><path
           d="M 226.961,18.645 V 321.691"
           style="fill:none;stroke:#000000;stroke-width:0.75;stroke-linecap:butt;stroke-linejoin:miter;stroke-miterlimit:4;stroke-dasharray:0.75, 0.75;stroke-dashoffset:0;stroke-opacity:1"
           id="path92"
           inkscape:connector-curvature="0" /></g><text
         transform="translate(228.65834,18.64453)"
         style="font-variant:normal;font-weight:normal;font-size:23.99999809px;font-family:'DejaVu Sans';-inkscape-font-specification:DejaVuSans;writing-mode:lr-tb;fill:#000000;fill-opacity:1;fill-rule:nonzero;stroke:none"
         id="text102"><tspan
           x="0 15.216 29.879999 42.359997 49.007999 62.183998 76.871994 91.535995 99.143997 114.35999"
           y="0"
           sodipodi:role="line"
           id="tspan94">posição de</tspan><tspan
           x="8.8359356 23.595936 38.811935 54.003933 60.651932 67.299934 73.947929 89.163933 99.027931 105.67593"
           y="29.999998"
           sodipodi:role="line"
           id="tspan96">equilíbrio</tspan><tspan
           x="-17.548246 -3.3642478 16.723751"
           y="159.85664"
           sodipodi:role="line"
           id="tspan98">x=0</tspan><tspan
           x="-16.856346 -2.6723471 17.415651"
           y="292.82651"
           sodipodi:role="line"
           id="tspan100">x=0</tspan></text>
</g></g></svg>