<?xml version="1.0" encoding="UTF-8" standalone="no"?>
<!-- Created with Inkscape (http://www.inkscape.org/) -->

<svg
   xmlns:dc="http://purl.org/dc/elements/1.1/"
   xmlns:cc="http://creativecommons.org/ns#"
   xmlns:rdf="http://www.w3.org/1999/02/22-rdf-syntax-ns#"
   xmlns:svg="http://www.w3.org/2000/svg"
   xmlns="http://www.w3.org/2000/svg"
   xmlns:sodipodi="http://sodipodi.sourceforge.net/DTD/sodipodi-0.dtd"
   xmlns:inkscape="http://www.inkscape.org/namespaces/inkscape"
   version="1.1"
   id="svg2"
   xml:space="preserve"
   width="432.90833"
   height="258.86917"
   viewBox="0 0 432.90833 258.86917"
   sodipodi:docname="onda.svg"
   inkscape:version="0.92.1 r15371"><metadata
     id="metadata8"><rdf:RDF><cc:Work
         rdf:about=""><dc:format>image/svg+xml</dc:format><dc:type
           rdf:resource="http://purl.org/dc/dcmitype/StillImage" /><dc:title /></cc:Work></rdf:RDF></metadata><defs
     id="defs6"><marker
       inkscape:stockid="Arrow1Lstart"
       orient="auto"
       refY="0.0"
       refX="0.0"
       id="Arrow1Lstart"
       style="overflow:visible"
       inkscape:isstock="true"><path
         id="path4511"
         d="M 0.0,0.0 L 5.0,-5.0 L -12.5,0.0 L 5.0,5.0 L 0.0,0.0 z "
         style="fill-rule:evenodd;stroke:#ff0000;stroke-width:1pt;stroke-opacity:1;fill:#ff0000;fill-opacity:1"
         transform="scale(0.8) translate(12.5,0)" /></marker><marker
       inkscape:isstock="true"
       style="overflow:visible;"
       id="marker5667"
       refX="0.0"
       refY="0.0"
       orient="auto"
       inkscape:stockid="Arrow1Lend"><path
         transform="scale(0.8) rotate(180) translate(12.5,0)"
         style="fill-rule:evenodd;stroke:#ff0000;stroke-width:1pt;stroke-opacity:1;fill:#ff0000;fill-opacity:1"
         d="M 0.0,0.0 L 5.0,-5.0 L -12.5,0.0 L 5.0,5.0 L 0.0,0.0 z "
         id="path5665" /></marker><marker
       inkscape:stockid="Arrow1Lend"
       orient="auto"
       refY="0.0"
       refX="0.0"
       id="marker5238"
       style="overflow:visible;"
       inkscape:isstock="true"
       inkscape:collect="always"><path
         id="path5236"
         d="M 0.0,0.0 L 5.0,-5.0 L -12.5,0.0 L 5.0,5.0 L 0.0,0.0 z "
         style="fill-rule:evenodd;stroke:#ff0000;stroke-width:1pt;stroke-opacity:1;fill:#ff0000;fill-opacity:1"
         transform="scale(0.8) rotate(180) translate(12.5,0)" /></marker><marker
       inkscape:isstock="true"
       style="overflow:visible;"
       id="marker4911"
       refX="0.0"
       refY="0.0"
       orient="auto"
       inkscape:stockid="Arrow1Lend"
       inkscape:collect="always"><path
         transform="scale(0.8) rotate(180) translate(12.5,0)"
         style="fill-rule:evenodd;stroke:#000000;stroke-width:1pt;stroke-opacity:1;fill:#000000;fill-opacity:1"
         d="M 0.0,0.0 L 5.0,-5.0 L -12.5,0.0 L 5.0,5.0 L 0.0,0.0 z "
         id="path4909" /></marker><marker
       inkscape:stockid="Arrow1Lend"
       orient="auto"
       refY="0.0"
       refX="0.0"
       id="Arrow1Lend"
       style="overflow:visible;"
       inkscape:isstock="true"
       inkscape:collect="always"><path
         id="path4514"
         d="M 0.0,0.0 L 5.0,-5.0 L -12.5,0.0 L 5.0,5.0 L 0.0,0.0 z "
         style="fill-rule:evenodd;stroke:#000000;stroke-width:1pt;stroke-opacity:1;fill:#000000;fill-opacity:1"
         transform="scale(0.8) rotate(180) translate(12.5,0)" /></marker><clipPath
       clipPathUnits="userSpaceOnUse"
       id="clipPath20"><path
         d="m 38.48125,23.871875 h 279 V 186.95188 h -279 z"
         id="path18"
         inkscape:connector-curvature="0" /></clipPath><clipPath
       clipPathUnits="userSpaceOnUse"
       id="clipPath30"><path
         d="m 38.48125,23.871875 h 279 V 186.95188 h -279 z"
         id="path28"
         inkscape:connector-curvature="0" /></clipPath><marker
       inkscape:stockid="Arrow1Lend"
       orient="auto"
       refY="0"
       refX="0"
       id="marker5238-5"
       style="overflow:visible"
       inkscape:isstock="true"><path
         inkscape:connector-curvature="0"
         id="path5236-6"
         d="M 0,0 5,-5 -12.5,0 5,5 Z"
         style="fill:#ff0000;fill-opacity:1;fill-rule:evenodd;stroke:#ff0000;stroke-width:1.00000003pt;stroke-opacity:1"
         transform="matrix(-0.8,0,0,-0.8,-10,0)" /></marker></defs><sodipodi:namedview
     pagecolor="#ffffff"
     bordercolor="#666666"
     borderopacity="1"
     objecttolerance="10"
     gridtolerance="10"
     guidetolerance="10"
     inkscape:pageopacity="0"
     inkscape:pageshadow="2"
     inkscape:window-width="1366"
     inkscape:window-height="700"
     id="namedview4"
     showgrid="false"
     inkscape:zoom="1.482993"
     inkscape:cx="208.32246"
     inkscape:cy="118.31432"
     inkscape:window-x="0"
     inkscape:window-y="32"
     inkscape:window-maximized="1"
     inkscape:current-layer="g10" /><g
     id="g10"
     inkscape:groupmode="layer"
     inkscape:label="onda"
     transform="matrix(1.3333333,0,0,-1.3333333,0,258.86917)"><g
       id="g14"><g
         id="g16"
         clip-path="url(#clipPath20)"><path
           d="m 51.163068,179.53915 1.016579,-0.14686 1.016578,-0.44 1.016579,-0.73139 1.016579,-1.01989 1.016578,-1.30435 1.016579,-1.58363 1.524868,-2.88508 1.524868,-3.4734 1.524868,-4.03076 2.033157,-6.17858 2.033157,-7.00722 2.541447,-9.75416 3.049735,-12.84298 4.066315,-18.29808 6.607761,-29.808277 3.049736,-12.625271 2.541446,-9.506267 2.033157,-6.769714 2.033158,-5.910278 1.524868,-3.811853 1.524867,-3.2415 1.524868,-2.642261 1.016579,-1.416741 1.016579,-1.134219 1.016578,-0.847203 1.016578,-0.55683 1.01658,-0.26425 1.01658,0.02938 1.01658,0.322887 1.01658,0.615118 1.01657,0.904911 1.01658,1.191119 1.01658,1.472608 1.52487,2.723638 1.52487,3.31933 1.52486,3.885441 1.52487,4.416927 2.03316,6.647317 2.03316,7.416445 2.54144,10.172234 3.04974,13.19432 5.59118,25.478619 4.06632,18.12884 3.04973,12.58723 2.54145,9.46362 2.03316,6.72918 2.03315,5.86473 1.52487,3.77483 1.52487,3.20239 1.52487,2.60142 1.01658,1.38872 1.01657,1.1057 1.01658,0.8183 1.01658,0.52765 1.01658,0.23492 1.01658,-0.0588 1.01658,-0.35218 1.01658,-0.64423 1.01657,-0.93371 1.01658,-1.2195 1.01658,-1.50045 1.52487,-2.76417 1.52487,-3.35805 1.52486,-3.922 1.52487,-4.45101 2.03316,-6.68838 2.03316,-7.45192 2.54144,-10.20785 3.04974,-13.22314 6.60776,-30.108622 3.55803,-15.651246 2.54144,-10.37984 2.54145,-9.420605 2.03316,-6.688382 2.03315,-5.818949 1.52487,-3.73766 1.52487,-3.163157 1.52487,-2.560463 1.01658,-1.360651 1.01657,-1.077139 1.01658,-0.78936 1.01658,-0.498453 1.01658,-0.205571 1.01658,0.08812 1.01658,0.381472 1.01658,0.673309 1.01657,0.962476 1.01658,1.24783 1.01658,1.528241 1.52487,2.804584 1.52487,3.396634 1.52487,3.958413 1.52486,4.484917 2.03316,6.729181 2.03316,7.487085 2.54144,10.243063 3.04974,13.251448 11.69065,52.046435 2.54145,9.79412 2.03316,7.04584 2.03316,6.22246 1.52486,4.06669 1.52487,3.51158 1.52487,2.92516 1.52487,2.31269 1.01658,1.19112 1.01657,0.90491 1.01658,0.61512 1.01658,0.32289 1.01658,0.0294 1.01658,-0.26425 1.01658,-0.55683 1.01658,-0.8472 1.01657,-1.13422 1.01658,-1.41674 1.52487,-2.64226 1.52487,-3.2415 1.52487,-3.81185 1.52486,-4.34824 2.03316,-6.5644 2.03316,-7.34463 2.54145,-10.09979 3.04973,-13.1351 5.08289,-23.12765 4.57461,-20.507501 3.04974,-12.662816 2.54144,-9.548533 2.03316,-6.809979 2.03316,-5.955591 1.52486,-3.848724 1.52487,-3.28048 1.52487,-2.683002 1.01658,-1.444703 1.01658,-1.162693 1.01658,-0.876074 1.01657,-0.585985 1.01658,-0.293575 0.50829,-0.03672 v 0"
           style="fill:none;stroke:#1f77b4;stroke-width:1.5;stroke-linecap:square;stroke-linejoin:round;stroke-miterlimit:10;stroke-dasharray:none;stroke-opacity:1"
           id="path22"
           inkscape:connector-curvature="0" /></g></g><g
       id="g24"><g
         id="g26"
         clip-path="url(#clipPath30)"><path
           d="m 51.163068,56.959056 2.033157,-6.661578 2.033158,-5.788908 1.524868,-3.71329 1.524867,-3.13745 1.524868,-2.533649 1.016579,-1.342276 1.016579,-1.058452 1.016578,-0.770434 1.016579,-0.479362 1.016578,-0.186391 1.016579,0.107318 1.016579,0.400602 1.016578,0.692298 1.016579,0.981252 1.016578,1.266318 1.016579,1.546365 1.524868,2.830937 1.524868,3.421775 1.524868,3.98212 1.524868,4.506977 2.033157,6.755699 2.033157,7.509908 2.541447,10.265854 3.049736,13.26966 11.690654,52.017511 2.541446,9.76805 2.03316,7.02064 2.03316,6.19381 1.52486,4.04323 1.52487,3.48665 1.52487,2.89898 1.52487,2.2855 1.01657,1.17255 1.01658,0.88607 1.01658,0.59608 1.01658,0.30374 1.01658,0.0102 1.01658,-0.28342 1.01658,-0.57588 1.01657,-0.86607 1.01658,-1.15284 1.01658,-1.43502 1.52487,-2.66889 1.52487,-3.26699 1.52487,-3.83596 1.52486,-4.37076 2.03316,-6.5916 2.03316,-7.36823 2.54144,-10.12363 3.04974,-13.15468 5.59118,-25.462725 4.06632,-18.164142 3.04973,-12.638338 2.54145,-9.520956 2.03316,-6.783698 2.03315,-5.926007 1.52487,-3.824647 1.52487,-3.255022 1.52487,-2.656391 1.01658,-1.426437 1.01657,-1.144092 1.01658,-0.857211 1.01658,-0.566936 1.01658,-0.274413 1.01658,0.0192 1.01658,0.31273 1.01658,0.605025 1.01658,0.894923 1.01657,1.181273 1.01658,1.462945 1.52487,2.709569 1.52487,3.305882 1.52487,3.872734 1.52486,4.405075 2.03316,6.633025 2.03316,7.404086 2.54145,10.159797 3.04973,13.184209 5.59118,25.474702 4.06632,18.13805 3.04973,12.60047 2.54145,9.47844 2.03316,6.74326 2.03315,5.88054 1.52487,3.78767 1.52487,3.21596 1.52487,2.61558 1.01658,1.39844 1.01658,1.11559 1.01658,0.82832 1.01657,0.53776 1.01658,0.24509 1.01658,-0.0486 1.01658,-0.34203 1.01658,-0.63414 1.01658,-0.92374 1.01657,-1.20967 1.01658,-1.49081 1.52487,-2.75014 1.52487,-3.34464 1.52487,-3.90935 1.52486,-4.43922 2.03316,-6.67418 2.03316,-7.43966 2.54145,-10.19555 3.04973,-13.21322 6.09947,-27.801179 4.06632,-17.966448 2.54144,-10.39138 2.54145,-9.435555 2.03316,-6.70255 2.03316,-5.83484 1.52486,-3.750558 1.52487,-3.176767 1.52487,-2.574666 1.01658,-1.370385 1.01658,-1.087041 1.01657,-0.799392 1.01658,-0.508574 1.01658,-0.215741 1.01658,0.07795 1.01658,0.371326 1.01658,0.663233 1.01658,0.952513 1.01658,1.238018 1.01657,1.518618 1.52487,2.790591 1.52487,3.383278 1.52487,3.945814 1.52487,4.473187 2.03315,6.715073 2.03316,7.47493 2.54145,10.230907 3.04973,13.2417 11.69066,52.061408 2.54144,9.80789 1.01658,3.62557 v 0"
           style="fill:none;stroke:#ff7f0e;stroke-width:1.5;stroke-linecap:square;stroke-linejoin:round;stroke-miterlimit:10;stroke-dasharray:none;stroke-opacity:1"
           id="path32"
           inkscape:connector-curvature="0" /></g></g><path
       style="fill:none;stroke:#000000;stroke-width:0.75px;stroke-linecap:butt;stroke-linejoin:miter;stroke-opacity:1;marker-end:url(#Arrow1Lend)"
       d="m 17.880398,105.13674 327.281372,0"
       id="path34"
       inkscape:connector-curvature="0"
       sodipodi:nodetypes="cc" /><path
       style="fill:none;stroke:#000000;stroke-width:0.75px;stroke-linecap:butt;stroke-linejoin:miter;stroke-opacity:1;marker-end:url(#marker4911)"
       d="m 50.492292,24.674945 0,189.229805"
       id="path4901"
       inkscape:connector-curvature="0"
       sodipodi:nodetypes="cc" /><text
       xml:space="preserve"
       style="font-style:normal;font-weight:normal;font-size:20px;line-height:1.25;font-family:sans-serif;letter-spacing:0px;word-spacing:0px;fill:#000000;fill-opacity:1;stroke:none;stroke-width:0.75"
       x="338.84183"
       y="-86.480515"
       id="text5191"
       transform="scale(1,-1)"><tspan
         sodipodi:role="line"
         id="tspan5189"
         x="338.84183"
         y="-86.480515"
         style="font-size:24.0000006px;stroke-width:0.75">x</tspan></text>
<text
       xml:space="preserve"
       style="font-style:normal;font-weight:normal;font-size:20px;line-height:1.25;font-family:sans-serif;letter-spacing:0px;word-spacing:0px;fill:#000000;fill-opacity:1;stroke:none;stroke-width:0.75"
       x="30.875351"
       y="-205.84579"
       id="text5191-3"
       transform="scale(1,-1)"><tspan
         sodipodi:role="line"
         id="tspan5189-6"
         x="30.875351"
         y="-205.84579"
         style="font-size:24px;stroke-width:0.75">y</tspan></text>
<circle
       id="path5211"
       cx="63.722488"
       cy="-158.80049"
       r="2.0229361"
       transform="scale(1,-1)"
       style="stroke-width:0.75" /><circle
       id="path5211-7"
       cx="63.722492"
       cy="-31.300491"
       r="2.0229361"
       style="stroke-width:0.75"
       transform="scale(1,-1)" /><path
       style="fill:none;stroke:#ff0000;stroke-width:0.75px;stroke-linecap:butt;stroke-linejoin:miter;stroke-opacity:1;marker-end:url(#marker5238)"
       d="M 63.216755,150.70874 V 42.481656"
       id="path5228"
       inkscape:connector-curvature="0" /><circle
       id="path5211-5"
       cx="122.89337"
       cy="-84.963318"
       r="2.0229361"
       style="stroke-width:0.75"
       transform="scale(1,-1)" /><circle
       id="path5211-5-3"
       cx="122.89336"
       cy="-171.96332"
       r="2.0229361"
       style="stroke-width:0.75"
       transform="scale(1,-1)" /><path
       style="fill:none;stroke:#ff0000;stroke-width:0.75px;stroke-linecap:butt;stroke-linejoin:miter;stroke-opacity:1;marker-start:url(#Arrow1Lstart)"
       d="m 122.89337,165.59731 0,-70.802769"
       id="path5228-2"
       inkscape:connector-curvature="0"
       sodipodi:nodetypes="cc" /><text
       xml:space="preserve"
       style="font-style:normal;font-weight:normal;font-size:24px;line-height:1.25;font-family:sans-serif;letter-spacing:0px;word-spacing:0px;fill:#000000;fill-opacity:1;stroke:none;stroke-width:0.75"
       x="196.22481"
       y="-204.82228"
       id="text5997"
       transform="scale(1,-1)"><tspan
         sodipodi:role="line"
         id="tspan5995"
         x="196.22481"
         y="-204.82228"
         style="stroke-width:0.75">λ</tspan></text>
<path
       style="fill:none;stroke:#000000;stroke-width:0.75px;stroke-linecap:butt;stroke-linejoin:miter;stroke-opacity:1"
       d="M 191.16747,213.92549 H 152.73168"
       id="path5999"
       inkscape:connector-curvature="0" /><path
       style="fill:none;stroke:#000000;stroke-width:0.75px;stroke-linecap:butt;stroke-linejoin:miter;stroke-opacity:1"
       d="M 254.44957,214.41403 H 216.01378"
       id="path5999-9"
       inkscape:connector-curvature="0" /><path
       style="fill:none;stroke:#000000;stroke-width:0.75000002;stroke-linecap:butt;stroke-linejoin:miter;stroke-opacity:1;stroke-miterlimit:4;stroke-dasharray:0.75000002,1.50000004;stroke-dashoffset:0"
       d="M 152.73168,213.92549 V 172.96104"
       id="path6016"
       inkscape:connector-curvature="0" /><path
       style="fill:none;stroke:#000000;stroke-width:0.75;stroke-linecap:butt;stroke-linejoin:miter;stroke-miterlimit:4;stroke-dasharray:0.75000002, 1.50000004;stroke-dashoffset:0;stroke-opacity:1"
       d="M 254.44957,214.41403 V 173.44958"
       id="path6016-1"
       inkscape:connector-curvature="0" /><text
       xml:space="preserve"
       style="font-style:normal;font-weight:normal;font-size:24px;line-height:1.25;font-family:sans-serif;letter-spacing:0px;word-spacing:0px;fill:#000000;fill-opacity:1;stroke:none;stroke-width:0.75"
       x="144.91861"
       y="-6.3421021"
       id="text5997-2"
       transform="scale(1,-1)"><tspan
         sodipodi:role="line"
         id="tspan5995-7"
         x="144.91861"
         y="-6.3421021"
         style="stroke-width:0.75">λ</tspan></text>
<path
       style="fill:none;stroke:#000000;stroke-width:0.75px;stroke-linecap:butt;stroke-linejoin:miter;stroke-opacity:1"
       d="M 139.86127,15.445311 H 101.42548"
       id="path5999-0"
       inkscape:connector-curvature="0" /><path
       style="fill:none;stroke:#000000;stroke-width:0.75px;stroke-linecap:butt;stroke-linejoin:miter;stroke-opacity:1"
       d="M 203.14337,15.933851 H 164.70758"
       id="path5999-9-9"
       inkscape:connector-curvature="0" /><path
       style="fill:none;stroke:#000000;stroke-width:0.75;stroke-linecap:butt;stroke-linejoin:miter;stroke-miterlimit:4;stroke-dasharray:0.75000002, 1.50000004;stroke-dashoffset:0;stroke-opacity:1"
       d="M 101.42548,56.409761 V 15.445311"
       id="path6016-3"
       inkscape:connector-curvature="0" /><path
       style="fill:none;stroke:#000000;stroke-width:0.75;stroke-linecap:butt;stroke-linejoin:miter;stroke-miterlimit:4;stroke-dasharray:0.75000002, 1.50000004;stroke-dashoffset:0;stroke-opacity:1"
       d="M 203.14337,56.898301 V 15.933851"
       id="path6016-1-6"
       inkscape:connector-curvature="0" /><g
       id="g4634"><text
         transform="scale(1,-1)"
         id="text4566"
         y="-23.263762"
         x="311.53217"
         style="font-style:normal;font-weight:normal;font-size:24px;line-height:1.25;font-family:sans-serif;letter-spacing:0px;word-spacing:0px;fill:#000000;fill-opacity:1;stroke:none;stroke-width:0.75"
         xml:space="preserve"><tspan
           style="stroke-width:0.75"
           y="-23.263762"
           x="311.53217"
           id="tspan4564"
           sodipodi:role="line">t</tspan></text>
<text
         transform="scale(1,-1)"
         id="text4570"
         y="-16.183489"
         x="322.65833"
         style="font-style:normal;font-weight:normal;font-size:24px;line-height:1.25;font-family:sans-serif;letter-spacing:0px;word-spacing:0px;fill:#000000;fill-opacity:1;stroke:none;stroke-width:0.75"
         xml:space="preserve"><tspan
           style="font-size:16px;stroke-width:0.75"
           y="-16.183489"
           x="322.65833"
           id="tspan4568"
           sodipodi:role="line">0</tspan></text>
</g><g
       id="g4628"><text
         transform="scale(1,-1)"
         id="text4566-6"
         y="-150.48798"
         x="311.20291"
         style="font-style:normal;font-weight:normal;font-size:24px;line-height:1.25;font-family:sans-serif;letter-spacing:0px;word-spacing:0px;fill:#000000;fill-opacity:1;stroke:none;stroke-width:0.75"
         xml:space="preserve"><tspan
           style="stroke-width:0.75"
           y="-150.48798"
           x="311.20291"
           id="tspan4564-4"
           sodipodi:role="line">t</tspan></text>
<text
         transform="scale(1,-1)"
         id="text4570-9"
         y="-143.4077"
         x="322.32907"
         style="font-style:normal;font-weight:normal;font-size:24px;line-height:1.25;font-family:sans-serif;letter-spacing:0px;word-spacing:0px;fill:#000000;fill-opacity:1;stroke:none;stroke-width:0.75"
         xml:space="preserve"><tspan
           style="font-size:15.99999905px;stroke-width:0.75"
           y="-143.4077"
           x="322.32907"
           id="tspan4568-5"
           sodipodi:role="line">1</tspan></text>
<text
         transform="scale(1,-1)"
         id="text4566-0"
         y="-150.48798"
         x="333.43799"
         style="font-style:normal;font-weight:normal;font-size:24px;line-height:1.25;font-family:sans-serif;letter-spacing:0px;word-spacing:0px;fill:#000000;fill-opacity:1;stroke:none;stroke-width:0.75"
         xml:space="preserve"><tspan
           style="stroke-width:0.75"
           y="-150.48798"
           x="333.43799"
           id="tspan4564-48"
           sodipodi:role="line">&gt; t</tspan></text>
<text
         transform="scale(1,-1)"
         id="text4570-7"
         y="-142.39624"
         x="372.88525"
         style="font-style:normal;font-weight:normal;font-size:24px;line-height:1.25;font-family:sans-serif;letter-spacing:0px;word-spacing:0px;fill:#000000;fill-opacity:1;stroke:none;stroke-width:0.75"
         xml:space="preserve"><tspan
           style="font-size:15.99999905px;stroke-width:0.75"
           y="-142.39624"
           x="372.88525"
           id="tspan4568-1"
           sodipodi:role="line">0</tspan></text>
</g></g></svg>